<?xml version="1.0" standalone="no"?>
<!DOCTYPE svg PUBLIC "-//W3C//DTD SVG 20010904//EN"
 "http://www.w3.org/TR/2001/REC-SVG-20010904/DTD/svg10.dtd">
<svg version="1.0" xmlns="http://www.w3.org/2000/svg"
 width="1000.000000pt" height="1000.000000pt" viewBox="0 0 1000.000000 1000.000000"
 preserveAspectRatio="xMidYMid meet">
<metadata>
Created by potrace 1.14, written by Peter Selinger 2001-2017
</metadata>
<g transform="translate(0.000000,1000.000000) scale(0.100000,-0.100000)"
fill="#000000" stroke="none">
<path d="M0 7713 l0 -2288 2285 2285 c1257 1257 2285 2286 2285 2287 0 2
-1028 3 -2285 3 l-2285 0 0 -2287z"/>
<path d="M2712 7287 l-2112 -2112 0 -2288 0 -2287 2287 0 2288 0 2112 2112
2113 2113 0 2287 0 2288 -2288 0 -2287 0 -2113 -2113z m4711 166 c577 -577
1055 -1060 1063 -1075 13 -25 13 -31 0 -55 -8 -16 -131 -144 -274 -285 -182
-182 -265 -258 -281 -258 -12 0 -34 6 -49 14 -15 8 -200 188 -412 400 l-385
386 -295 -295 c-227 -226 -301 -295 -320 -295 -19 0 -79 54 -252 227 -126 125
-228 230 -228 233 0 3 135 141 300 306 260 259 300 303 300 329 0 26 -51 81
-397 427 -299 298 -399 404 -401 424 -3 24 30 61 265 296 205 204 275 268 293
268 19 0 257 -232 1073 -1047z m-1356 -1385 c841 -841 1063 -1068 1063 -1088
0 -19 -64 -89 -283 -307 -155 -156 -287 -283 -293 -283 -11 0 -2142 2130
-2157 2156 -13 23 547 584 583 584 19 0 255 -230 1087 -1062z m-2072 10 c6 -6
12 -371 15 -1036 l5 -1027 1028 -5 c1004 -5 1029 -5 1043 -24 8 -11 14 -29 14
-40 0 -14 -105 -125 -319 -338 -258 -256 -327 -319 -358 -327 -25 -7 -304 -11
-831 -11 -666 0 -797 -2 -821 -14 -15 -8 -63 -51 -107 -96 -70 -73 -118 -110
-140 -110 -5 0 -108 100 -231 222 -165 165 -223 229 -223 246 0 16 25 48 80
102 131 128 120 34 120 977 0 546 3 821 11 840 11 31 612 640 644 653 21 9 54
4 70 -12z m-845 -2933 c835 -835 1060 -1065 1060 -1084 0 -19 -58 -83 -247
-274 -236 -237 -313 -307 -337 -307 -12 0 -2122 2105 -2137 2132 -7 12 -5 26
5 45 8 16 134 146 279 291 227 226 269 263 291 260 19 -2 303 -280 1086 -1063z"/>
<path d="M7710 2285 l-2285 -2285 2288 0 2287 0 0 2285 c0 1257 -1 2285 -3
2285 -1 0 -1030 -1028 -2287 -2285z"/>
</g>
</svg>
